# xmcd CD database file
#
# Track frame offsets:
#	150
#	29317
#	54170
#	73352
#	91135
#	107077
#	119405
#	135667
#
# Disc length: 2063 seconds
#
# Revision: 0
# Processed by: cddbd v1.4PL0 Copyright (c) Steve Scherf et al.
# Submitted via: CDex 1.51
#
DISCID=6a080d08
DTITLE=Lashing Dogs - The Lashing Dogs at Last
DYEAR=1996
DGENRE=Salsa
TTITLE0=Man Like You
TTITLE1=Ignorance
TTITLE2=Wake Up This Morning
TTITLE3=Can't Take Wrong
TTITLE4=Blame The Parents
TTITLE5=Mr. Herbert
TTITLE6=I WILL Never Turn My Back
TTITLE7=Monkey
EXTD=YEAR: 1996
EXTT0=
EXTT1=
EXTT2=
EXTT3=
EXTT4=
EXTT5=
EXTT6=
EXTT7=
PLAYORDER=
